<?xml version="1.0" encoding="utf-8"?>
<!-- Generator: Adobe Illustrator 19.0.0, SVG Export Plug-In . SVG Version: 6.00 Build 0)  -->
<svg version="1.1" id="Layer_1" xmlns="http://www.w3.org/2000/svg" xmlns:xlink="http://www.w3.org/1999/xlink" x="0px" y="0px"
	 viewBox="-430 233.8 99 95.2" style="enable-background:new -430 233.8 99 95.2;" xml:space="preserve">
<path d="M-336.5,313.9c-6.7-6.6-13.3-13.3-19.9-19.9c-0.5-0.5-0.5-0.9-0.2-1.5c4.3-7.2,6-14.9,5.2-23.2c-0.7-8.2-3.9-15.3-9.2-21.5
	c-5.7-6.6-12.8-10.8-21.4-12.5c-9.6-1.9-18.7-0.4-27.1,4.6c-9.6,5.8-15.6,14.2-18,25.1c-0.3,1.5-0.5,3.1-0.7,4.6
	c0,0.3-0.1,0.6-0.2,0.9c0,1.7,0,3.3,0,5c0.2,1.6,0.4,3.2,0.7,4.8c1.3,6.8,4.3,12.9,8.9,18.1c6.1,6.9,13.7,11.2,22.8,12.6
	c9.4,1.4,18.2-0.4,26.3-5.4c0.5-0.3,1-0.6,1.6-1c0.3,0.2,0.5,0.5,0.8,0.7c6.8,6.8,13.6,13.6,20.4,20.4c1.7,1.7,3.8,2.8,6.3,2.6
	c3.6-0.3,6.2-2.5,7.1-5.9c0.1-0.3,0.1-0.5,0.2-0.8c0-0.6,0-1.2,0-1.9C-333.3,317.3-334.8,315.6-336.5,313.9z M-389.5,302.4
	c-0.1,0-0.1,0-0.2,0c-7.8,0-15.1-3-20.6-8.5c-5.6-5.6-8.7-12.9-8.7-20.8c-0.1-16.2,13.1-29.4,29.4-29.5c7.8,0,15.1,3,20.7,8.5
	c5.6,5.6,8.8,13,8.8,20.9C-360,289.1-373.2,302.3-389.5,302.4z"/>
</svg>
