<?xml version="1.0" encoding="utf-8"?>
<!-- Generator: Adobe Illustrator 19.0.0, SVG Export Plug-In . SVG Version: 6.00 Build 0)  -->
<svg version="1.1" id="Layer_1" xmlns="http://www.w3.org/2000/svg" xmlns:xlink="http://www.w3.org/1999/xlink" x="0px" y="0px"
	 viewBox="-458 269 42 24" style="enable-background:new -458 269 42 24;" xml:space="preserve">
<style type="text/css">
	.st0{fill:#0B0B0C;}
	.st1{clip-path:url(#SVGID_2_);}
	.st2{fill:#FFFFFF;}
</style>
<path class="st0" d="M-453,269.5h32c2.5,0,4.5,2,4.5,4.5v14c0,2.5-2,4.5-4.5,4.5h-32c-2.5,0-4.5-2-4.5-4.5v-14
	C-457.5,271.5-455.5,269.5-453,269.5z"/>
<g>
	<defs>
		<rect id="SVGID_1_" x="-451.3" y="275" width="28.6" height="11.9"/>
	</defs>
	<clipPath id="SVGID_2_">
		<use xlink:href="#SVGID_1_"  style="overflow:visible;"/>
	</clipPath>
	<g class="st1">
		<path class="st2" d="M-446.1,276.6c-0.3,0.4-0.9,0.7-1.4,0.7c-0.1-0.5,0.2-1.1,0.5-1.5c0.3-0.4,0.9-0.7,1.4-0.7
			C-445.5,275.6-445.8,276.2-446.1,276.6z M-445.6,277.4c-0.8,0-1.4,0.4-1.8,0.4c-0.4,0-0.9-0.4-1.6-0.4c-0.8,0-1.5,0.5-2,1.2
			c-0.8,1.5-0.2,3.6,0.6,4.8c0.4,0.6,0.9,1.2,1.5,1.2c0.6,0,0.8-0.4,1.5-0.4c0.7,0,0.9,0.4,1.6,0.4c0.6,0,1.1-0.6,1.5-1.2
			c0.5-0.7,0.6-1.3,0.6-1.4c0,0-1.3-0.5-1.3-1.9c0-1.2,1-1.8,1-1.8C-444.4,277.5-445.3,277.4-445.6,277.4z M-441.1,275.7v8.8h1.4v-3
			h1.9c1.7,0,2.9-1.2,2.9-2.9c0-1.7-1.2-2.9-2.9-2.9H-441.1z M-439.8,276.9h1.6c1.2,0,1.8,0.6,1.8,1.8c0,1.1-0.7,1.8-1.9,1.8h-1.6
			V276.9z M-432.5,284.6c0.9,0,1.6-0.4,2-1.1h0v1.1h1.3v-4.4c0-1.3-1-2.1-2.6-2.1c-1.4,0-2.5,0.8-2.5,2h1.2c0.1-0.5,0.6-0.9,1.3-0.9
			c0.8,0,1.3,0.4,1.3,1.1v0.5l-1.7,0.1c-1.6,0.1-2.4,0.7-2.4,1.9C-434.6,283.9-433.7,284.6-432.5,284.6z M-432.1,283.6
			c-0.7,0-1.2-0.4-1.2-0.9c0-0.6,0.4-0.9,1.3-0.9l1.5-0.1v0.5C-430.5,283-431.2,283.6-432.1,283.6z M-427.5,287
			c1.3,0,1.9-0.5,2.5-2.1l2.4-6.8h-1.4l-1.6,5.2h0l-1.6-5.2h-1.4l2.3,6.4l-0.1,0.4c-0.2,0.7-0.5,0.9-1.1,0.9c-0.1,0-0.3,0-0.4,0v1.1
			C-428,286.9-427.6,287-427.5,287z"/>
	</g>
</g>
</svg>
