<?xml version="1.0" encoding="utf-8"?>
<!-- Generator: Adobe Illustrator 19.0.0, SVG Export Plug-In . SVG Version: 6.00 Build 0)  -->
<svg version="1.1" id="Layer_1" xmlns="http://www.w3.org/2000/svg" xmlns:xlink="http://www.w3.org/1999/xlink" x="0px" y="0px"
	 viewBox="-120 256 50 50" style="enable-background:new -120 256 50 50;" xml:space="preserve">
<g>
	<path d="M-120,268.8c0.1-0.2,0.1-0.5,0.2-0.7c0.5-1.8,2.2-3.1,4.1-3.1c1,0,2,0,3.1,0c2.1,0,3.8,1.3,4.4,3.4
		c0.2,0.8,0.4,1.6,0.6,2.4c12.6,0,25.1,0,37.7,0c0,0.1,0,0.1,0,0.2c-0.1,0.1-0.1,0.3-0.2,0.4c-2.1,7.4-4.3,14.9-6.4,22.3
		c-0.1,0.4-0.3,0.5-0.7,0.5c-8.7,0-17.4,0-26.1,0c-0.2,0-0.3,0-0.5,0c-0.8,0.1-1.4,0.7-1.4,1.5c0,0.8,0.6,1.4,1.4,1.4
		c0.2,0,0.5,0,0.7,0c7.6,0,15.2,0,22.7,0c2.3,0,4,1.5,4.4,3.8c0.3,2-0.9,4-2.9,4.7c-0.3,0.1-0.6,0.2-0.9,0.3c-0.4,0-0.8,0-1.2,0
		c-0.1,0-0.2-0.1-0.3-0.1c-2.5-0.6-3.9-2.9-3.4-5.4c0-0.1,0-0.2,0.1-0.4c-3.1,0-6.1,0-9.2,0c0,0.1,0.1,0.3,0.1,0.4
		c0.5,2.2-0.7,4.4-2.8,5.2c-0.3,0.1-0.6,0.2-0.9,0.3c-0.4,0-0.8,0-1.2,0c-0.1,0-0.2-0.1-0.3-0.1c-2.5-0.6-3.9-2.9-3.4-5.4
		c0-0.1,0-0.2,0.1-0.4c-0.6,0-1.2,0-1.7,0c-2,0-3.7-1.4-4.2-3.3c-0.5-1.9,0.4-3.9,2.1-4.9c0.1-0.1,0.3-0.2,0.4-0.2
		c0-0.1,0-0.2-0.1-0.3c-1.8-7.4-3.7-14.8-5.5-22.3c-0.2-0.7-0.7-1.2-1.5-1.2c-0.8,0-1.7,0-2.5,0c-1.2,0-1.6,0.3-2,1.5
		c-1,0-1.9,0-2.9,0C-120,269.2-120,269-120,268.8z M-106.9,273.8c0,0.1,0,0.2,0.1,0.4c1.4,5.6,2.7,11.1,4.1,16.7
		c0.1,0.4,0.2,0.5,0.7,0.5c7.6,0,15.1,0,22.7,0c0.2,0,0.3,0,0.5,0c1.7-5.9,3.3-11.7,5-17.6C-84.9,273.8-95.9,273.8-106.9,273.8z
		 M-96.5,301.6c0-0.8-0.7-1.4-1.5-1.4s-1.5,0.7-1.5,1.5c0,0.8,0.7,1.5,1.5,1.5C-97.1,303.1-96.5,302.4-96.5,301.6z M-78.9,301.6
		c0-0.8-0.7-1.5-1.4-1.5c-0.8,0-1.5,0.6-1.5,1.4c0,0.8,0.7,1.5,1.5,1.5C-79.6,303.1-78.9,302.4-78.9,301.6z"/>
	<path d="M-89.1,256c0,1.9,0,3.9,0,5.8c-1,0-1.9,0-2.9,0c0-1.9,0-3.9,0-5.8C-91.1,256-90.1,256-89.1,256z"/>
	<path d="M-102.9,261.7c0.6-0.6,1.3-1.3,1.9-1.9c1.3,1.3,2.7,2.7,4,4c-0.6,0.6-1.3,1.3-1.9,1.9
		C-100.2,264.5-101.5,263.1-102.9,261.7z"/>
	<path d="M-82.3,265.8c-0.6-0.6-1.3-1.3-2-2c1.3-1.3,2.7-2.7,4-4c0.7,0.7,1.3,1.3,2,2C-79.6,263.1-81,264.5-82.3,265.8z"/>
</g>
</svg>
