<?xml version="1.0" encoding="utf-8"?>
<!-- Generator: Adobe Illustrator 19.0.0, SVG Export Plug-In . SVG Version: 6.00 Build 0)  -->
<svg version="1.1" id="Layer_1" xmlns="http://www.w3.org/2000/svg" xmlns:xlink="http://www.w3.org/1999/xlink" x="0px" y="0px"
	 viewBox="0 0 416.1 418" style="enable-background:new 0 0 416.1 418;" xml:space="preserve">
<path d="M-0.1,217.5c2-9.8,7.9-17,15.1-23.5c3-2.7,5.8-5.8,8.7-8.6c13.7-13.5,32.9-13.5,46.5,0c24,23.8,47.8,47.8,71.7,71.7
	c0.8,0.8,1.6,1.5,2.6,2.5c1.2-1.1,2.3-2.2,3.4-3.3C214,190.3,280,124.2,346,58.2c11.2-11.2,25.7-13.9,38.6-6.9
	c3.1,1.6,5.9,3.9,8.4,6.3c4.4,4,8.5,8.4,12.7,12.6c14.9,14.9,14.9,33.7,0.1,48.6c-21.1,21.1-42.2,42.2-63.3,63.4
	C282.4,242.3,222.2,302.5,162,362.7c-11.7,11.7-23.3,11.7-35,0C89.8,325.5,52.6,288.2,15.3,251C8.3,244.2,2,237.1-0.1,227.3
	C-0.1,224-0.1,220.7-0.1,217.5z"/>
</svg>
