<?xml version="1.0" encoding="utf-8"?>
<!-- Generator: Adobe Illustrator 19.0.0, SVG Export Plug-In . SVG Version: 6.00 Build 0)  -->
<svg version="1.1" id="Layer_1" xmlns="http://www.w3.org/2000/svg" xmlns:xlink="http://www.w3.org/1999/xlink" x="0px" y="0px"
	 viewBox="-458 269 42 24" style="enable-background:new -458 269 42 24;" xml:space="preserve">
<style type="text/css">
	.st0{fill:#0B0B0C;}
	.st1{clip-path:url(#SVGID_2_);}
	.st2{fill:#FFFFFF;}
</style>
<path class="st0" d="M-453,269.5h32c2.5,0,4.5,2,4.5,4.5v14c0,2.5-2,4.5-4.5,4.5h-32c-2.5,0-4.5-2-4.5-4.5v-14
	C-457.5,271.5-455.5,269.5-453,269.5z"/>
<g>
	<defs>
		<rect id="SVGID_1_" x="-452.4" y="274.7" width="30.7" height="12.6"/>
	</defs>
	<clipPath id="SVGID_2_">
		<use xlink:href="#SVGID_1_"  style="overflow:visible;"/>
	</clipPath>
	<g class="st1">
		<path class="st2" d="M-437.8,280.9v3.7h-1.1v-9.1h3c0.4,0,0.7,0.1,1.1,0.2c0.3,0.1,0.6,0.3,0.9,0.6c0.3,0.2,0.5,0.5,0.6,0.9
			c0.1,0.3,0.2,0.7,0.2,1.1c0,0.4-0.1,0.7-0.2,1.1c-0.1,0.3-0.3,0.6-0.6,0.9c-0.5,0.5-1.2,0.8-1.9,0.8L-437.8,280.9L-437.8,280.9z
			 M-437.8,276.5v3.2h1.9c0.2,0,0.4,0,0.6-0.1c0.2-0.1,0.4-0.2,0.5-0.4c0.1-0.1,0.3-0.3,0.3-0.5c0.1-0.2,0.1-0.4,0.1-0.6
			s0-0.4-0.1-0.6c-0.1-0.2-0.2-0.4-0.3-0.5c-0.1-0.2-0.3-0.3-0.5-0.4c-0.2-0.1-0.4-0.1-0.6-0.1L-437.8,276.5L-437.8,276.5z"/>
		<path class="st2" d="M-430.6,278.1c0.8,0,1.5,0.2,2,0.7c0.5,0.5,0.7,1.1,0.7,1.9v3.9h-1.1v-0.9h0c-0.5,0.7-1.1,1.1-1.9,1.1
			c-0.7,0-1.2-0.2-1.7-0.6c-0.2-0.2-0.4-0.4-0.5-0.7c-0.1-0.3-0.2-0.6-0.2-0.8c0-0.6,0.2-1.2,0.7-1.5s1.1-0.6,1.9-0.6
			c0.7,0,1.2,0.1,1.7,0.4v-0.3c0-0.2,0-0.4-0.1-0.6c-0.1-0.2-0.2-0.3-0.3-0.5c-0.3-0.3-0.7-0.4-1.1-0.4c-0.6,0-1.1,0.3-1.5,0.8
			l-1-0.7C-432.5,278.5-431.7,278.1-430.6,278.1z M-432,282.6c0,0.1,0,0.3,0.1,0.4c0.1,0.1,0.2,0.2,0.3,0.3c0.3,0.2,0.6,0.3,0.9,0.3
			c0.5,0,0.9-0.2,1.3-0.5c0.4-0.4,0.6-0.8,0.6-1.3c-0.4-0.3-0.8-0.4-1.5-0.4c-0.5,0-0.8,0.1-1.2,0.3C-431.9,282-432,282.3-432,282.6
			z"/>
		<path class="st2" d="M-421.6,278.3l-3.8,9h-1.2l1.4-3.2l-2.5-5.9h1.2l1.8,4.5h0l1.8-4.5H-421.6z"/>
		<path class="st2" d="M-442.4,280.1c0-0.4,0-0.7-0.1-1.1h-4.8v2h2.7c-0.1,0.3-0.2,0.6-0.3,0.9s-0.4,0.5-0.7,0.7v1.3h1.6
			C-443,283-442.4,281.7-442.4,280.1z"/>
		<path class="st2" d="M-447.3,285.2c1.4,0,2.5-0.5,3.4-1.3l-1.6-1.3c-0.5,0.3-1,0.5-1.7,0.5c-1.3,0-2.4-0.9-2.8-2.2h-1.7v1.4
			c0.4,0.9,1.1,1.6,1.9,2.1C-449.1,284.9-448.2,285.2-447.3,285.2z"/>
		<path class="st2" d="M-450.1,280.9c-0.2-0.7-0.2-1.4,0-2v-1.4h-1.7c-0.4,0.7-0.5,1.5-0.5,2.4c0,0.8,0.2,1.6,0.5,2.4L-450.1,280.9z
			"/>
		<path class="st2" d="M-447.3,276.8c0.7,0,1.4,0.3,1.9,0.8l1.4-1.5c-0.9-0.9-2.1-1.4-3.4-1.4c-0.9,0-1.9,0.3-2.7,0.8
			c-0.8,0.5-1.4,1.2-1.9,2.1l1.7,1.4C-449.7,277.7-448.6,276.8-447.3,276.8z"/>
	</g>
</g>
</svg>
