<?xml version="1.0" encoding="utf-8"?>
<!-- Generator: Adobe Illustrator 19.0.0, SVG Export Plug-In . SVG Version: 6.00 Build 0)  -->
<svg version="1.1" id="Layer_1" xmlns="http://www.w3.org/2000/svg" xmlns:xlink="http://www.w3.org/1999/xlink" x="0px" y="0px"
	 viewBox="-463 273.5 32 15.5" style="enable-background:new -463 273.5 32 15.5;" xml:space="preserve">
<g>
	<path d="M-431.1,281.5c-0.3,0.8-0.8,1-1.6,1c-8.5,0-17.1,0-25.7,0.1c-0.2,0-0.3,0-0.4,0v0.1c0.1,0.1,0.2,0.1,0.3,0.2
		c1.4,1.3,2.8,2.7,4.1,4c0.6,0.6,0.6,1.4,0,1.9c-0.5,0.5-1.2,0.4-1.8-0.1c-2.1-2.1-4.1-4.1-6.2-6.2c-0.2-0.3-0.4-0.6-0.6-0.9
		c0-0.2,0-0.3,0-0.5c0.2-0.3,0.4-0.6,0.6-0.9c0.6-0.6,1.1-1.1,1.7-1.7c1.5-1.5,3-3,4.5-4.5c0.3-0.3,0.7-0.5,1.2-0.4
		c0.4,0.1,0.8,0.3,0.9,0.8s0,0.9-0.3,1.3c-1.4,1.3-2.8,2.7-4.1,4c-0.1,0.1-0.2,0.2-0.3,0.3c0.2,0,0.3,0,0.4,0c8.6,0,17.1,0,25.7,0
		c0.8,0,1.3,0.2,1.6,1C-431.1,281.2-431.1,281.3-431.1,281.5z"/>
</g>
</svg>
