<?xml version="1.0" encoding="utf-8"?>
<!-- Generator: Adobe Illustrator 19.0.0, SVG Export Plug-In . SVG Version: 6.00 Build 0)  -->
<svg version="1.1" id="Layer_1" xmlns="http://www.w3.org/2000/svg" xmlns:xlink="http://www.w3.org/1999/xlink" x="0px" y="0px"
	 viewBox="-458 269 42 24" style="enable-background:new -458 269 42 24;" xml:space="preserve">
<style type="text/css">
	.st0{fill:#0B0B0C;}
	.st1{fill:#FFFFFF;}
</style>
<path class="st0" d="M-453,269.5h32c2.5,0,4.5,2,4.5,4.5v14c0,2.5-2,4.5-4.5,4.5h-32c-2.5,0-4.5-2-4.5-4.5v-14
	C-457.5,271.5-455.5,269.5-453,269.5z"/>
<path class="st1" d="M-441,278.7h-1.8c-0.1,0-0.2,0.1-0.2,0.2l-0.7,4.6c0,0.1,0.1,0.2,0.1,0.2h0.9c0.1,0,0.2-0.1,0.2-0.2l0.2-1.3
	c0-0.1,0.1-0.2,0.2-0.2h0.6c1.2,0,1.9-0.6,2-1.7c0.1-0.5,0-0.9-0.2-1.2C-440,278.9-440.4,278.7-441,278.7z M-440.8,280.4
	c-0.1,0.7-0.6,0.7-1.1,0.7h-0.3l0.2-1.2c0-0.1,0.1-0.1,0.1-0.1h0.1c0.3,0,0.6,0,0.8,0.2C-440.8,280.1-440.8,280.2-440.8,280.4z"/>
<path class="st1" d="M-435.7,280.4h-0.9c-0.1,0-0.1,0.1-0.1,0.1l0,0.2l-0.1-0.1c-0.2-0.3-0.6-0.4-1-0.4c-0.9,0-1.8,0.7-1.9,1.7
	c-0.1,0.5,0,1,0.3,1.3c0.3,0.3,0.6,0.4,1.1,0.4c0.8,0,1.2-0.5,1.2-0.5l0,0.2c0,0.1,0.1,0.2,0.1,0.2h0.8c0.1,0,0.2-0.1,0.2-0.2l0.5-3
	C-435.5,280.5-435.6,280.4-435.7,280.4z M-436.9,282.1c-0.1,0.5-0.5,0.8-1,0.8c-0.2,0-0.4-0.1-0.6-0.2c-0.1-0.2-0.2-0.4-0.1-0.6
	c0.1-0.5,0.5-0.8,1-0.8c0.2,0,0.4,0.1,0.6,0.2C-436.9,281.7-436.8,281.9-436.9,282.1z"/>
<path class="st1" d="M-431.1,280.4h-0.9c-0.1,0-0.2,0-0.2,0.1l-1.2,1.8l-0.5-1.7c0-0.1-0.1-0.2-0.2-0.2h-0.8c-0.1,0-0.2,0.1-0.1,0.2
	l0.9,2.8l-0.9,1.3c-0.1,0.1,0,0.2,0.1,0.2h0.9c0.1,0,0.2,0,0.2-0.1l2.9-4.2C-431,280.6-431,280.4-431.1,280.4z"/>
<path class="st1" d="M-428.3,278.7h-1.8c-0.1,0-0.2,0.1-0.2,0.2l-0.7,4.6c0,0.1,0.1,0.2,0.1,0.2h0.9c0.1,0,0.2-0.1,0.2-0.1l0.2-1.3
	c0-0.1,0.1-0.2,0.2-0.2h0.6c1.2,0,1.9-0.6,2-1.7c0.1-0.5,0-0.9-0.2-1.2C-427.3,278.9-427.7,278.7-428.3,278.7z M-428.1,280.4
	c-0.1,0.7-0.6,0.7-1.1,0.7h-0.3l0.2-1.2c0-0.1,0.1-0.1,0.1-0.1h0.1c0.3,0,0.6,0,0.8,0.2C-428.1,280.1-428.1,280.2-428.1,280.4z"/>
<path class="st1" d="M-423,280.4h-0.9c-0.1,0-0.1,0.1-0.1,0.1l0,0.2l-0.1-0.1c-0.2-0.3-0.6-0.4-1-0.4c-0.9,0-1.8,0.7-1.9,1.7
	c-0.1,0.5,0,1,0.3,1.3c0.3,0.3,0.6,0.4,1.1,0.4c0.8,0,1.2-0.5,1.2-0.5l0,0.2c0,0.1,0.1,0.2,0.1,0.2h0.8c0.1,0,0.2-0.1,0.2-0.2l0.5-3
	C-422.8,280.5-422.9,280.4-423,280.4z M-424.2,282.1c-0.1,0.5-0.5,0.8-1,0.8c-0.2,0-0.4-0.1-0.6-0.2c-0.1-0.2-0.2-0.4-0.1-0.6
	c0.1-0.5,0.5-0.8,1-0.8c0.2,0,0.4,0.1,0.6,0.2C-424.2,281.7-424.1,281.9-424.2,282.1z"/>
<path class="st1" d="M-422,278.9l-0.7,4.7c0,0.1,0.1,0.2,0.1,0.2h0.7c0.1,0,0.2-0.1,0.2-0.2l0.7-4.6c0-0.1-0.1-0.2-0.1-0.2h-0.8
	C-421.9,278.7-421.9,278.8-422,278.9z"/>
<path class="st1" d="M-451.2,284.7l0.1-0.9l-0.3,0h-1.5l1-6.5c0,0,0,0,0-0.1c0,0,0,0,0.1,0h2.4c0.8,0,1.4,0.2,1.7,0.5
	c0.1,0.2,0.2,0.3,0.3,0.5c0,0.2,0,0.4,0,0.7l0,0v0.2l0.1,0.1c0.1,0.1,0.2,0.1,0.3,0.2c0.1,0.1,0.2,0.3,0.2,0.5c0,0.2,0,0.5,0,0.7
	c-0.1,0.3-0.2,0.6-0.3,0.8c-0.1,0.2-0.3,0.4-0.5,0.5c-0.2,0.1-0.4,0.2-0.6,0.3c-0.2,0.1-0.5,0.1-0.8,0.1h-0.2c-0.1,0-0.3,0-0.4,0.1
	c-0.1,0.1-0.2,0.2-0.2,0.4l0,0.1l-0.2,1.6l0,0.1c0,0,0,0,0,0c0,0,0,0,0,0H-451.2z"/>
<path class="st1" d="M-447.1,279c0,0,0,0.1,0,0.1c-0.3,1.7-1.4,2.3-2.8,2.3h-0.7c-0.2,0-0.3,0.1-0.3,0.3l-0.4,2.4l-0.1,0.7
	c0,0.1,0.1,0.2,0.2,0.2h1.3c0.2,0,0.3-0.1,0.3-0.3l0-0.1l0.2-1.5l0-0.1c0-0.2,0.2-0.3,0.3-0.3h0.2c1.2,0,2.2-0.5,2.5-2
	c0.1-0.6,0.1-1.1-0.3-1.5C-446.8,279.2-446.9,279.1-447.1,279z"/>
<path class="st1" d="M-447.4,278.9c0,0-0.1,0-0.2,0c-0.1,0-0.1,0-0.2,0c-0.2,0-0.4,0-0.6,0h-1.9c0,0-0.1,0-0.1,0
	c-0.1,0-0.2,0.1-0.2,0.2l-0.4,2.6l0,0.1c0-0.2,0.2-0.3,0.3-0.3h0.7c1.4,0,2.5-0.6,2.8-2.3c0,0,0-0.1,0-0.1
	C-447.2,278.9-447.2,278.9-447.4,278.9C-447.4,278.9-447.4,278.9-447.4,278.9z"/>
<path class="st1" d="M-450.6,279c0-0.1,0.1-0.2,0.2-0.2c0,0,0.1,0,0.1,0h1.9c0.2,0,0.4,0,0.6,0c0.1,0,0.1,0,0.2,0c0.1,0,0.1,0,0.2,0
	c0,0,0,0,0.1,0c0.1,0,0.2,0.1,0.3,0.1c0.1-0.6,0-1-0.3-1.4c-0.4-0.4-1-0.6-1.9-0.6h-2.4c-0.2,0-0.3,0.1-0.3,0.3l-1,6.6
	c0,0.1,0.1,0.2,0.2,0.2h1.5l0.4-2.4L-450.6,279z"/>
</svg>
