<?xml version="1.0" standalone="no"?>
<!DOCTYPE svg PUBLIC "-//W3C//DTD SVG 20010904//EN"
 "http://www.w3.org/TR/2001/REC-SVG-20010904/DTD/svg10.dtd">
<svg version="1.0" xmlns="http://www.w3.org/2000/svg"
 width="236.000000pt" height="232.000000pt" viewBox="0 0 236.000000 232.000000"
 preserveAspectRatio="xMidYMid meet">

<g transform="translate(0.000000,232.000000) scale(0.100000,-0.100000)"
fill="#000000" stroke="none">
<path d="M1065 2251 c-235 -39 -444 -261 -477 -506 -32 -235 82 -474 283 -593
109 -64 160 -77 304 -77 110 0 139 4 189 22 156 59 269 160 340 304 59 120 75
215 58 344 -28 213 -194 415 -397 485 -66 23 -221 34 -300 21z m236 -190 c128
-44 223 -134 269 -258 25 -68 28 -193 6 -268 -19 -64 -91 -163 -152 -209 -134
-103 -364 -103 -498 0 -61 46 -133 145 -152 209 -15 53 -20 181 -8 231 20 85
96 193 167 238 120 76 253 97 368 57z"/>
<path d="M989 1000 c-309 -56 -564 -218 -724 -460 -91 -138 -156 -369 -122
-439 24 -51 103 -64 141 -23 8 10 20 51 27 92 40 261 198 460 462 586 131 62
210 77 402 77 192 0 271 -15 403 -78 263 -125 420 -324 462 -588 15 -89 31
-110 90 -110 74 0 93 37 80 151 -32 283 -262 571 -560 702 -167 74 -251 92
-445 95 -93 2 -191 0 -216 -5z"/>
</g>
</svg>
