<?xml version="1.0" encoding="utf-8"?>
<!-- Generator: Adobe Illustrator 19.0.0, SVG Export Plug-In . SVG Version: 6.00 Build 0)  -->
<svg version="1.1" id="Layer_1" xmlns="http://www.w3.org/2000/svg" xmlns:xlink="http://www.w3.org/1999/xlink" x="0px" y="0px"
	 viewBox="0 0 32 15.5" style="enable-background:new 0 0 32 15.5;" xml:space="preserve">
<g>
	<path d="M0,7.5c0.3-0.8,0.8-1,1.6-1c8.6,0,17.1,0,25.7,0c0.1,0,0.2,0,0.4,0c-0.1-0.1-0.2-0.2-0.3-0.3c-1.3-1.3-2.7-2.7-4.1-4
		C23,1.8,22.9,1.4,23,0.9c0.1-0.5,0.5-0.7,0.9-0.8c0.5-0.1,0.9,0.1,1.2,0.4c1.5,1.5,3,3,4.5,4.5c0.6,0.6,1.1,1.1,1.7,1.7
		c0.2,0.3,0.4,0.6,0.6,0.9c0,0.2,0,0.3,0,0.5c-0.2,0.3-0.4,0.6-0.6,0.9c-2.1,2.1-4.1,4.1-6.2,6.2c-0.6,0.5-1.3,0.6-1.8,0.1
		c-0.6-0.5-0.6-1.3,0-1.9c1.3-1.3,2.7-2.7,4.1-4c0.1-0.1,0.2-0.1,0.3-0.2c0,0,0-0.1,0-0.1c-0.1,0-0.2,0-0.4,0C18.7,9,10.1,9,1.6,9
		C0.8,9,0.3,8.8,0,8C0,7.8,0,7.7,0,7.5z"/>
</g>
</svg>
