<!-- Generator: Adobe Illustrator 19.0.0, SVG Export Plug-In  -->
<svg version="1.1"
	 xmlns="http://www.w3.org/2000/svg" xmlns:xlink="http://www.w3.org/1999/xlink" xmlns:a="http://ns.adobe.com/AdobeSVGViewerExtensions/3.0/"
	 x="0px" y="0px" width="7.5px" height="7.5px" viewBox="0 0 7.5 7.5" style="enable-background:new 0 0 7.5 7.5;"
	 xml:space="preserve">
<defs>
</defs>
<path id="XMLID_16_" d="M4.5,3.8l2.9-2.9c0.2-0.2,0.2-0.5,0-0.7S6.9,0,6.7,0.1L3.8,3L0.9,0.1C0.7,0,0.3,0,0.1,0.1S0,0.7,0.1,0.9
	L3,3.8L0.1,6.7C0,6.9,0,7.2,0.1,7.4c0.1,0.1,0.2,0.1,0.4,0.1s0.3,0,0.4-0.1l2.9-2.9l2.9,2.9C6.8,7.5,6.9,7.5,7,7.5s0.3,0,0.4-0.1
	c0.2-0.2,0.2-0.5,0-0.7L4.5,3.8z"/>
</svg>
