<?xml version="1.0" encoding="utf-8"?>
<!-- Generator: Adobe Illustrator 19.0.0, SVG Export Plug-In . SVG Version: 6.00 Build 0)  -->
<svg version="1.1" id="Layer_1" xmlns="http://www.w3.org/2000/svg" xmlns:xlink="http://www.w3.org/1999/xlink" x="0px" y="0px"
	 viewBox="0 0 435 532" style="enable-background:new 0 0 435 532;" xml:space="preserve">
<style type="text/css">
	.st0{fill:#010101;}
	.st1{fill:#040404;}
</style>
<path class="st0" d="M236,519c-12,0-24,0-36,0c-0.4-1.4-1.5-1-2.4-1.1c-13.6-1.6-26.9-4.2-39.9-8.4C60.1,477.9,0.9,382.6,17,281.7
	c9.7-60.4,41.8-106.7,93-139.7c24.1-15.5,50.5-25.2,78.8-29.2c3.4-0.5,4.6-1.5,4.6-5.3c-0.3-15-0.2-30,0-45c0-3.4-0.7-4.6-4.4-4.5
	c-7.7,0.3-15.3,0.2-23,0c-10.8-0.3-19-6.3-22.3-16.1c-3.7-11-0.7-23,7.4-29.6c3.2-2.6,7.2-3.6,10.9-5.4c37.7,0,75.3,0,113,0
	c1.4,1.8,3.6,1,5.4,1.7c10.7,4.1,17,15.3,15.2,27.5C293.8,49,285.2,57.5,272.9,58c-8,0.3-16,0.3-24,0.1c-3.6-0.1-4.4,1.1-4.3,4.5
	c0.2,15.2,0.2,30.3,0,45.5c0,3.3,1.1,4.2,4.1,4.5c21.8,2.5,42.5,9,62.2,18.6c2.2,1.1,3.5,0.8,5.1-0.9c4.7-4.9,9.5-9.9,14.5-14.4
	c10.1-9.1,24.4-8.5,34.2,1.2c9.7,9.6,10.4,24,1.6,34.2c-2.7,3.1-5.6,6.2-8.8,8.9c-2.8,2.4-2.3,3.7,0.3,5.9
	c18.5,15.7,33.6,34.3,44.1,56.1c30.5,63.3,30.1,126.9-3.1,188.7c-31.4,58.4-81.2,93.2-146.6,105.3C246.9,517.2,241.2,516.8,236,519z
	 M372.6,313.9c-0.5-84.7-69.5-153.5-153.8-153.2C134.3,160.9,65.2,230,65.4,314.2c0.1,84.5,69.8,154.1,154.1,153.6
	C303.9,467.4,373.1,397.9,372.6,313.9z"/>
<path class="st1" d="M193.3,262.7c0-16.8-0.2-33.6,0.1-50.4c0.3-19.8,17-31.1,35.5-24.4c8.4,3,13.3,9.2,15,17.7
	c0.5,2.6,0.7,5.3,0.7,7.9c0,33,0.1,65.9,0,98.9c0,13.3-5.4,21.9-15.8,25.7c-18.5,6.7-35-4.7-35.5-24.5c0-0.3,0-0.7,0-1
	C193.3,296,193.3,279.4,193.3,262.7z"/>
</svg>
