<?xml version="1.0" encoding="utf-8"?>
<!-- Generator: Adobe Illustrator 19.0.0, SVG Export Plug-In . SVG Version: 6.00 Build 0)  -->
<svg version="1.1" id="Layer_1" xmlns="http://www.w3.org/2000/svg" xmlns:xlink="http://www.w3.org/1999/xlink" x="0px" y="0px"
	 viewBox="0 0 474 323" style="enable-background:new 0 0 474 323;" xml:space="preserve">
<style type="text/css">
	.st0{fill:#010101;}
</style>
<path class="st0" d="M16,241.6c0-40.7,0-81.3,0-122c0.3-0.2,0.6-0.3,0.8-0.5c4.8-8.5,11.6-11.7,20.2-9.4c7.4,2,11,7.7,11.1,17.3
	c0,27.5,0,55,0,82.4c0,11.1,0,10.8,10.9,11.2c7.9,0.3,15.2,0.2,20-7.3c0.4-0.7,1.3-1.1,1.9-1.6c21.2-15.8,52.1-13.4,71.3,5.6
	c1.7,1.7,3.2,3.4,6.2,3.3c26-0.2,52-0.2,78,0c3.2,0,3.8-0.9,3.8-3.9c-0.1-56.1-0.1-112.3,0-168.4c0-3-0.6-3.9-3.8-3.9
	c-61.5,0.1-122.9,0.1-184.4,0c-3.5,0-4,1.2-4,4.2c0.2,9.8,0.1,19.7,0,29.5c-0.1,7.8-4.2,13.1-11.5,15c-8.4,2.3-15.3-1.3-20.5-10.6
	c0-19.7,0-39.3,0-59c2.5-5.3,6.3-9.1,12-11c77.3,0,154.7,0,232,0c9.1,3.2,12.1,9.8,12.1,19.2c-0.2,59.5-0.1,118.9-0.1,178.4
	c0,10.5,0,10.2,10.5,10.6c4.6,0.2,5.6-1.2,5.6-5.6c-0.2-45.8-0.1-91.6-0.1-137.4c0-10.5,5.6-17,15.4-17c38.5-0.1,76.9-0.3,115.4,0.1
	c19.8,0.2,36.8,13.7,42.9,32.5c0.8,2.4,0.7,5.1,2.3,7.3c0,47,0,94,0,141c-4,9-11.2,11.8-20.6,11.1c-4.5-0.4-9,0.1-13.5-0.1
	c-2.9-0.1-4.2,0.2-4.2,3.9c0.3,26.8-16.8,48.6-42.9,55.4c-2.3,0.6-4.9-0.1-6.9,1.8c-5,0-10,0-15,0c-1.5-1.8-3.8-1.6-5.8-2.1
	c-25-6.6-42.5-29.3-41.8-54.7c0.1-3.5-0.7-4.3-4.2-4.3c-45.1,0.1-90.2,0.1-135.3,0c-2.9,0-4.2,0.3-4.1,3.9
	c0.3,26.8-16.8,48.6-42.9,55.4c-2.3,0.6-4.9-0.1-6.9,1.8c-5,0-10,0-15,0c-0.3-1.4-1.5-1-2.4-1.2c-28.3-6.2-46.8-30.8-45.1-57.4
	c0.2-2.9-1.4-2.4-3-2.4c-6.1,0-12.3-0.3-18.4,0.1C26.8,253.3,19.9,250.2,16,241.6z M320,156.2c0,20.2,0,40.3,0.1,60.5
	c0,1.3-1.1,3.6,1,3.7c2.9,0.1,5.9,1.1,8.7-1.9c18.8-20.4,51.2-23.6,72.2-6c7.9,6.6,15.5,9.1,25.1,8c0.3,0,0.7-0.1,1,0
	c3.5,0.7,4-1.1,4-4.1c-0.2-13-0.3-26,0.1-39c0.1-4.4-1.3-5-5.3-5c-24.2,0.2-48.3,0.1-72.5,0.1c-13,0-18.4-5.5-18.4-18.6
	c0-16.5,0-33,0-49.5c0-12.1,0-11.9-12.1-12c-3.5,0-4,1.2-3.9,4.2C320.1,116.5,320,136.4,320,156.2z M399.6,140.6c9.7,0,19.3,0,29,0
	c1.8,0,3.6,0.4,3.5-2.6c-0.2-10.3,0.2-20.7-0.2-31c-0.3-8.4-6.4-14.2-14.9-14.4c-15.3-0.2-30.7,0-46-0.1c-2.5,0-3,0.8-3,3.1
	c0.1,13.8,0.1,27.7,0,41.5c0,2.9,0.9,3.5,3.6,3.5C380.9,140.5,390.2,140.6,399.6,140.6z M113.8,233.5c-12.9-0.1-23.9,10.7-24.1,23.6
	c-0.2,12.9,11.1,24.4,23.9,24.4c12.6,0,23.9-11.3,24-24C137.7,244.8,126.6,233.5,113.8,233.5z M345.7,257.4
	c0,12.7,11.1,24,23.8,24.1c12.5,0.1,23.9-11.1,24.2-23.8c0.2-12.8-11.1-24.2-24.1-24.2C356.7,233.5,345.7,244.5,345.7,257.4z"/>
</svg>
