<?xml version="1.0" encoding="utf-8"?>
<!-- Generator: Adobe Illustrator 19.0.0, SVG Export Plug-In . SVG Version: 6.00 Build 0)  -->
<svg version="1.1" id="Layer_1" xmlns="http://www.w3.org/2000/svg" xmlns:xlink="http://www.w3.org/1999/xlink" x="0px" y="0px"
	 viewBox="0 0 464 392" style="enable-background:new 0 0 464 392;" xml:space="preserve">
<style type="text/css">
	.st0{fill:#020202;}
</style>
<g>
	<path class="st0" d="M8,189c0-11.3,0-22.7,0-34c1.7-0.7,1-2.3,1.2-3.5C18.3,78.8,72.6,22,141.8,7.4c5.7-1.2,11.8-0.9,17.2-3.4
		c10.7,0,21.3,0,32,0c0.2,0.8,0.8,0.9,1.5,0.9c53.6,5.9,95,31.8,124.9,76.5c1.5,2.2,2.9,3.4,5.8,3.8c64.5,8.7,114.7,54.7,129.3,118
		c1.4,5.9,1.2,12.1,3.5,17.7c0,10.3,0,20.7,0,31c-1.7,0.7-1,2.3-1.2,3.5c-10.2,66-54.3,113.9-118.6,129.1c-6,1.4-12.3,1.4-18.2,3.4
		c-10.3,0-20.7,0-31,0c-0.4-1.6-1.9-1.1-2.9-1.2c-35.1-5.1-65.1-20.2-89.8-45.7c-1.4-1.5-2.9-1.9-4.8-1.7
		c-15.7,1.7-31.4,0.9-46.7-2.7c-69.2-16.5-113-59.3-130.9-128.4C10.3,201.8,10.5,195.1,8,189z M312,172c0-75-61-136-136-136
		C101,36,40,97,40,172c0,75,61,136,136,136C251,308,312,246.9,312,172z M336.3,121.1c12.8,43.5,10.1,85.6-10.1,126
		c-20.3,40.5-52.4,67.9-94.9,83.8c31.9,26.4,85.2,35.3,130.2,10.4c46.3-25.6,70.7-77.9,60.2-128.8
		C412.6,168.3,371.7,124.4,336.3,121.1z"/>
	<path class="st0" d="M106.2,247.1c1.5-16,2.9-31.8,4.5-47.5c0.3-3.2-0.3-5.6-2.5-8c-10-11.1-19.8-22.5-29.7-33.8
		c-10.1-11.6-5.9-24.8,9.1-28.3c14.4-3.4,28.8-6.6,43.3-9.7c3.5-0.8,5.8-2.3,7.6-5.5c7.4-12.8,15-25.5,22.6-38.2
		c7.9-13.1,21.9-13.2,29.8,0c7.8,13,15.5,26,23.2,39c1.5,2.5,3.2,3.7,6.1,4.4c15.4,3.4,30.8,6.8,46.2,10.6
		c11.1,2.7,16,14.4,10.2,23.8c-1,1.7-2.4,3.2-3.7,4.7c-9.9,11.3-19.7,22.6-29.7,33.8c-1.6,1.7-2.3,3.4-2,5.8
		c1.5,15.6,2.9,31.2,4.4,46.7c1.4,13.4-10.2,22.4-22.6,17.3c-14.6-6-29.1-12.3-43.5-18.6c-2.5-1.1-4.5-1.1-7,0
		c-14.5,6.3-28.9,12.6-43.5,18.6C117.4,266.9,105.8,259,106.2,247.1z M176,113.6c-5,8.5-9.8,16-14.1,23.9
		c-3.6,6.7-8.9,10.3-16.3,11.7c-8.8,1.6-17.5,3.9-26.7,6.1c7.1,8.2,13.6,15.7,20.3,23.2c3,3.4,4.6,7.3,4.4,11.9c-0.2,4-0.7,8-1,11.9
		c-0.6,6.5-1.1,13-1.7,20.1c8.9-3.8,17.2-6.9,25-10.7c7-3.5,13.5-3.4,20.5,0c8,3.8,16.3,7,25,10.8c-0.9-10.4-1.6-20-2.6-29.6
		c-0.6-5.9,0.9-10.7,4.8-15.1c6.6-7.3,12.9-14.7,19.7-22.5c-9.6-2.2-18.7-4.4-27.8-6.2c-6.6-1.3-11.5-4.6-14.8-10.6
		C186.2,130.2,181.2,122.3,176,113.6z"/>
</g>
</svg>
