<?xml version="1.0" encoding="utf-8"?>
<!-- Generator: Adobe Illustrator 19.0.0, SVG Export Plug-In . SVG Version: 6.00 Build 0)  -->
<svg version="1.1" id="Layer_1" xmlns="http://www.w3.org/2000/svg" xmlns:xlink="http://www.w3.org/1999/xlink" x="0px" y="0px"
	 viewBox="-458 269 42 24" style="enable-background:new -458 269 42 24;" xml:space="preserve">
<style type="text/css">
	.st0{fill:#0B0B0C;}
	.st1{fill:#FFFFFF;}
</style>
<path class="st0" d="M-453,269.5h32c2.5,0,4.5,2,4.5,4.5v14c0,2.5-2,4.5-4.5,4.5h-32c-2.5,0-4.5-2-4.5-4.5v-14
	C-457.5,271.5-455.5,269.5-453,269.5z"/>
<path class="st1" d="M-438.9,285.9h-2.4l1.5-10h2.4L-438.9,285.9z"/>
<path class="st1" d="M-430.2,276.2c-0.5-0.2-1.2-0.4-2.1-0.4c-2.4,0-4,1.4-4,3.3c0,1.4,1.2,2.2,2.1,2.7c0.9,0.5,1.2,0.8,1.2,1.2
	c0,0.7-0.7,1-1.4,1c-1,0-1.5-0.2-2.2-0.5l-0.3-0.2l-0.3,2.2c0.6,0.3,1.6,0.5,2.7,0.5c2.5,0,4.1-1.3,4.2-3.4c0-1.1-0.6-2-2-2.7
	c-0.8-0.5-1.3-0.8-1.3-1.2c0-0.4,0.4-0.9,1.4-0.9c0.8,0,1.3,0.2,1.8,0.4l0.2,0.1L-430.2,276.2z"/>
<path class="st1" d="M-427.1,282.4c0.2-0.6,1-2.8,1-2.8c0,0,0.2-0.6,0.3-1l0.2,0.9c0,0,0.5,2.4,0.6,2.9
	C-425.5,282.4-426.6,282.4-427.1,282.4z M-424.1,275.9h-1.8c-0.6,0-1,0.2-1.2,0.8l-3.5,9.1h2.5c0,0,0.4-1.2,0.5-1.5
	c0.3,0,2.7,0,3.1,0c0.1,0.3,0.3,1.5,0.3,1.5h2.2L-424.1,275.9z"/>
<path class="st1" d="M-443.3,275.9l-2.3,6.8l-0.3-1.4c-0.4-1.6-1.8-3.3-3.3-4.2l2.1,8.7h2.5l3.8-9.9H-443.3z"/>
<path class="st1" d="M-447.8,275.9h-3.8l0,0.2c3,0.8,5,2.8,5.8,5.2l-0.8-4.6C-446.8,276.1-447.3,276-447.8,275.9z"/>
</svg>
